<svg width="144" height="144" viewBox="0 0 144 144" fill="none" xmlns="http://www.w3.org/2000/svg">
<path d="M0 72C0 32.2355 32.2355 0 72 0C111.764 0 144 32.2355 144 72C144 111.764 111.764 144 72 144C32.2355 144 0 111.764 0 72Z" fill="black"/>
<path d="M25.32 46.84C25.96 45.8 26.88 44.96 28.08 44.32C29.28 43.68 30.6533 43.36 32.2 43.36C34.04 43.36 35.7067 43.8267 37.2 44.76C38.6933 45.6933 39.8667 47.0267 40.72 48.76C41.6 50.4933 42.04 52.5067 42.04 54.8C42.04 57.0933 41.6 59.12 40.72 60.88C39.8667 62.6133 38.6933 63.96 37.2 64.92C35.7067 65.8533 34.04 66.32 32.2 66.32C30.6267 66.32 29.2533 66.0133 28.08 65.4C26.9067 64.76 25.9867 63.92 25.32 62.88V66H18.48V36.4H25.32V46.84ZM35.08 54.8C35.08 53.0933 34.6 51.76 33.64 50.8C32.7067 49.8133 31.5467 49.32 30.16 49.32C28.8 49.32 27.64 49.8133 26.68 50.8C25.7467 51.7867 25.28 53.1333 25.28 54.84C25.28 56.5467 25.7467 57.8933 26.68 58.88C27.64 59.8667 28.8 60.36 30.16 60.36C31.52 60.36 32.68 59.8667 33.64 58.88C34.6 57.8667 35.08 56.5067 35.08 54.8Z" fill="white"/>
<path d="M55.7884 66.32C53.6018 66.32 51.6284 65.8533 49.8684 64.92C48.1351 63.9867 46.7618 62.6533 45.7484 60.92C44.7618 59.1867 44.2684 57.16 44.2684 54.84C44.2684 52.5467 44.7751 50.5333 45.7884 48.8C46.8018 47.04 48.1884 45.6933 49.9484 44.76C51.7084 43.8267 53.6818 43.36 55.8684 43.36C58.0551 43.36 60.0284 43.8267 61.7884 44.76C63.5484 45.6933 64.9351 47.04 65.9484 48.8C66.9618 50.5333 67.4684 52.5467 67.4684 54.84C67.4684 57.1333 66.9484 59.16 65.9084 60.92C64.8951 62.6533 63.4951 63.9867 61.7084 64.92C59.9484 65.8533 57.9751 66.32 55.7884 66.32ZM55.7884 60.4C57.0951 60.4 58.2018 59.92 59.1084 58.96C60.0418 58 60.5084 56.6267 60.5084 54.84C60.5084 53.0533 60.0551 51.68 59.1484 50.72C58.2684 49.76 57.1751 49.28 55.8684 49.28C54.5351 49.28 53.4284 49.76 52.5484 50.72C51.6684 51.6533 51.2284 53.0267 51.2284 54.84C51.2284 56.6267 51.6551 58 52.5084 58.96C53.3884 59.92 54.4818 60.4 55.7884 60.4Z" fill="white"/>
<path d="M103.137 43.68L97.0972 66H89.5372L86.0172 51.52L82.3772 66H74.8572L68.7772 43.68H75.6172L78.7772 59.64L82.5372 43.68H89.7772L93.5772 59.56L96.6972 43.68H103.137Z" fill="white"/>
<path d="M115.906 66.32C113.719 66.32 111.746 65.8533 109.986 64.92C108.252 63.9867 106.879 62.6533 105.866 60.92C104.879 59.1867 104.386 57.16 104.386 54.84C104.386 52.5467 104.892 50.5333 105.906 48.8C106.919 47.04 108.306 45.6933 110.066 44.76C111.826 43.8267 113.799 43.36 115.986 43.36C118.172 43.36 120.146 43.8267 121.906 44.76C123.666 45.6933 125.052 47.04 126.066 48.8C127.079 50.5333 127.586 52.5467 127.586 54.84C127.586 57.1333 127.066 59.16 126.026 60.92C125.012 62.6533 123.612 63.9867 121.826 64.92C120.066 65.8533 118.092 66.32 115.906 66.32ZM115.906 60.4C117.212 60.4 118.319 59.92 119.226 58.96C120.159 58 120.626 56.6267 120.626 54.84C120.626 53.0533 120.172 51.68 119.266 50.72C118.386 49.76 117.292 49.28 115.986 49.28C114.652 49.28 113.546 49.76 112.666 50.72C111.786 51.6533 111.346 53.0267 111.346 54.84C111.346 56.6267 111.772 58 112.626 58.96C113.506 59.92 114.599 60.4 115.906 60.4Z" fill="white"/>
<path d="M30.92 100.2V106H27.44C24.96 106 23.0267 105.4 21.64 104.2C20.2533 102.973 19.56 100.987 19.56 98.24V89.36H16.84V83.68H19.56V78.24H26.4V83.68H30.88V89.36H26.4V98.32C26.4 98.9867 26.56 99.4667 26.88 99.76C27.2 100.053 27.7333 100.2 28.48 100.2H30.92Z" fill="#007BFF"/>
<path d="M41.57 87.4C42.37 86.1733 43.37 85.2133 44.57 84.52C45.77 83.8 47.1033 83.44 48.57 83.44V90.68H46.69C44.9833 90.68 43.7033 91.0533 42.85 91.8C41.9967 92.52 41.57 93.8 41.57 95.64V106H34.73V83.68H41.57V87.4Z" fill="#007BFF"/>
<path d="M50.4794 94.8C50.4794 92.5067 50.906 90.4933 51.7594 88.76C52.6394 87.0267 53.826 85.6933 55.3194 84.76C56.8127 83.8267 58.4794 83.36 60.3194 83.36C61.8927 83.36 63.266 83.68 64.4394 84.32C65.6394 84.96 66.5594 85.8 67.1994 86.84V83.68H74.0394V106H67.1994V102.84C66.5327 103.88 65.5994 104.72 64.3994 105.36C63.226 106 61.8527 106.32 60.2794 106.32C58.466 106.32 56.8127 105.853 55.3194 104.92C53.826 103.96 52.6394 102.613 51.7594 100.88C50.906 99.12 50.4794 97.0933 50.4794 94.8ZM67.1994 94.84C67.1994 93.1333 66.7194 91.7867 65.7594 90.8C64.826 89.8133 63.6794 89.32 62.3194 89.32C60.9594 89.32 59.7994 89.8133 58.8394 90.8C57.906 91.76 57.4394 93.0933 57.4394 94.8C57.4394 96.5067 57.906 97.8667 58.8394 98.88C59.7994 99.8667 60.9594 100.36 62.3194 100.36C63.6794 100.36 64.826 99.8667 65.7594 98.88C66.7194 97.8933 67.1994 96.5467 67.1994 94.84Z" fill="#007BFF"/>
<path d="M92.5878 83.44C95.2011 83.44 97.2811 84.2933 98.8278 86C100.401 87.68 101.188 90 101.188 92.96V106H94.3878V93.88C94.3878 92.3867 94.0011 91.2267 93.2278 90.4C92.4545 89.5733 91.4145 89.16 90.1078 89.16C88.8011 89.16 87.7611 89.5733 86.9878 90.4C86.2145 91.2267 85.8278 92.3867 85.8278 93.88V106H78.9878V83.68H85.8278V86.64C86.5211 85.6533 87.4545 84.88 88.6278 84.32C89.8011 83.7333 91.1211 83.44 92.5878 83.44Z" fill="#007BFF"/>
<path d="M115.021 106.32C113.074 106.32 111.341 105.987 109.821 105.32C108.301 104.653 107.101 103.747 106.221 102.6C105.341 101.427 104.848 100.12 104.741 98.68H111.501C111.581 99.4533 111.941 100.08 112.581 100.56C113.221 101.04 114.008 101.28 114.941 101.28C115.794 101.28 116.448 101.12 116.901 100.8C117.381 100.453 117.621 100.013 117.621 99.48C117.621 98.84 117.288 98.3733 116.621 98.08C115.954 97.76 114.874 97.4133 113.381 97.04C111.781 96.6667 110.448 96.28 109.381 95.88C108.314 95.4533 107.394 94.8 106.621 93.92C105.848 93.0133 105.461 91.8 105.461 90.28C105.461 89 105.808 87.84 106.501 86.8C107.221 85.7333 108.261 84.8933 109.621 84.28C111.008 83.6667 112.648 83.36 114.541 83.36C117.341 83.36 119.541 84.0533 121.141 85.44C122.768 86.8267 123.701 88.6667 123.941 90.96H117.621C117.514 90.1867 117.168 89.5733 116.581 89.12C116.021 88.6667 115.274 88.44 114.341 88.44C113.541 88.44 112.928 88.6 112.501 88.92C112.074 89.2133 111.861 89.6267 111.861 90.16C111.861 90.8 112.194 91.28 112.861 91.6C113.554 91.92 114.621 92.24 116.061 92.56C117.714 92.9867 119.061 93.4133 120.101 93.84C121.141 94.24 122.048 94.9067 122.821 95.84C123.621 96.7467 124.034 97.9733 124.061 99.52C124.061 100.827 123.688 102 122.941 103.04C122.221 104.053 121.168 104.853 119.781 105.44C118.421 106.027 116.834 106.32 115.021 106.32Z" fill="#007BFF"/>
</svg>
